<?xml version="1.0" encoding="UTF-8"?>
<svg id="Layer_1" xmlns="http://www.w3.org/2000/svg" xmlns:xlink="http://www.w3.org/1999/xlink" version="1.1" viewBox="0 0 150 150">
  <!-- Generator: Adobe Illustrator 29.4.0, SVG Export Plug-In . SVG Version: 2.1.0 Build 152)  -->
  <defs>
    <style>
      .st0 {
        fill: #999;
      }

      .st0, .st1, .st2, .st3, .st4, .st5, .st6, .st7, .st8, .st9, .st10, .st11, .st12, .st13, .st14, .st15, .st16, .st17, .st18, .st19, .st20, .st21, .st22, .st23, .st24, .st25, .st26, .st27, .st28, .st29, .st30, .st31, .st32, .st33, .st34, .st35, .st36, .st37, .st38, .st39, .st40, .st41, .st42 {
        isolation: isolate;
      }

      .st0, .st7, .st20, .st25, .st42 {
        opacity: .8;
      }

      .st1 {
        fill: #c8c8c8;
      }

      .st1, .st6, .st11, .st14, .st23 {
        opacity: .4;
      }

      .st2 {
        fill: #b9b9b9;
      }

      .st2, .st4, .st19, .st37, .st39, .st40 {
        opacity: .5;
      }

      .st43 {
        fill: url(#linear-gradient2);
      }

      .st44 {
        fill: url(#linear-gradient1);
      }

      .st45 {
        fill: url(#linear-gradient9);
      }

      .st46 {
        fill: url(#linear-gradient3);
      }

      .st47 {
        fill: url(#linear-gradient6);
      }

      .st48 {
        fill: url(#linear-gradient8);
      }

      .st49 {
        fill: url(#linear-gradient7);
      }

      .st50 {
        fill: url(#linear-gradient5);
      }

      .st51 {
        fill: url(#linear-gradient4);
      }

      .st3 {
        fill: #afafaf;
      }

      .st3, .st5, .st24, .st27, .st32 {
        opacity: .6;
      }

      .st4 {
        fill: #c1c1c1;
      }

      .st5 {
        fill: #adadad;
      }

      .st52 {
        fill: gray;
      }

      .st6 {
        fill: #cbcbcb;
      }

      .st7 {
        fill: #949494;
      }

      .st53 {
        fill: #f5f5f5;
      }

      .st53, .st54, .st55, .st56, .st57, .st58 {
        fill-opacity: 0;
      }

      .st59 {
        fill: url(#linear-gradient11);
      }

      .st60 {
        fill: url(#linear-gradient10);
      }

      .st8 {
        fill: #d7d7d7;
      }

      .st8, .st12, .st16, .st21, .st33 {
        opacity: .3;
      }

      .st61 {
        fill: #828282;
      }

      .st9 {
        fill: #a3a3a3;
      }

      .st9, .st31, .st34, .st35, .st41 {
        opacity: .7;
      }

      .st54 {
        fill: #fafafa;
      }

      .st10 {
        fill: #e4e4e4;
      }

      .st10, .st13, .st26, .st30, .st38 {
        opacity: .2;
      }

      .st11 {
        fill: #d2d2d2;
      }

      .st62 {
        fill: #24c778;
      }

      .st12 {
        fill: #d5d5d5;
      }

      .st13 {
        fill: #e6e6e6;
      }

      .st55 {
        fill: #fdfdfd;
      }

      .st63 {
        fill: url(#linear-gradient);
      }

      .st14 {
        fill: #d0d0d0;
      }

      .st15 {
        fill: #8c8c8c;
      }

      .st15, .st22, .st28, .st29, .st36 {
        opacity: .9;
      }

      .st16 {
        fill: #dadada;
      }

      .st17 {
        fill: #f0f0f0;
      }

      .st17, .st18 {
        opacity: .1;
      }

      .st64 {
        fill: #4d4d4d;
      }

      .st18 {
        fill: #eee;
      }

      .st19 {
        fill: #c6c6c6;
      }

      .st20 {
        fill: #9b9b9b;
      }

      .st21 {
        fill: #dcdcdc;
      }

      .st22 {
        fill: #919191;
      }

      .st65 {
        fill: #303955;
      }

      .st23 {
        fill: #cdcdcd;
      }

      .st24 {
        fill: #b2b2b2;
      }

      .st25 {
        fill: #9e9e9e;
      }

      .st26 {
        fill: #e1e1e1;
      }

      .st27 {
        fill: #b4b4b4;
      }

      .st56, .st66 {
        fill: #fff;
      }

      .st28 {
        fill: #8f8f8f;
      }

      .st29 {
        fill: #8a8a8a;
      }

      .st67 {
        fill: #666;
      }

      .st57 {
        fill: #f8f8f8;
      }

      .st30 {
        fill: #ebebeb;
      }

      .st68 {
        fill: #858585;
      }

      .st31 {
        fill: #a5a5a5;
      }

      .st58 {
        fill: #f3f3f3;
      }

      .st32 {
        fill: #b7b7b7;
      }

      .st33 {
        fill: #dfdfdf;
      }

      .st34 {
        fill: #aaa;
      }

      .st35 {
        fill: #a0a0a0;
      }

      .st36 {
        fill: #878787;
      }

      .st37 {
        fill: #bebebe;
      }

      .st38 {
        fill: #e9e9e9;
      }

      .st66 {
        display: none;
        stroke: #000;
        stroke-miterlimit: 10;
      }

      .st39 {
        fill: #bcbcbc;
      }

      .st40 {
        fill: #c3c3c3;
      }

      .st41 {
        fill: #a8a8a8;
      }

      .st42 {
        fill: #969696;
      }
    </style>
    <linearGradient id="linear-gradient" x1="46.6" y1="103.9" x2="107.3" y2="103.9" gradientTransform="translate(0 149.9) scale(1 -1)" gradientUnits="userSpaceOnUse">
      <stop offset="0" stop-color="#fff"/>
      <stop offset=".2" stop-color="#f5f5f5"/>
      <stop offset=".6" stop-color="#dcdcdc"/>
      <stop offset="1" stop-color="#b4b4b4"/>
      <stop offset="1" stop-color="#b3b3b3"/>
    </linearGradient>
    <linearGradient id="linear-gradient1" x1="63.3" y1="83.5" x2="123" y2="83.5" gradientTransform="translate(0 149.9) scale(1 -1)" gradientUnits="userSpaceOnUse">
      <stop offset="0" stop-color="#fff"/>
      <stop offset=".2" stop-color="#f5f5f5"/>
      <stop offset=".6" stop-color="#dcdcdc"/>
      <stop offset="1" stop-color="#b4b4b4"/>
      <stop offset="1" stop-color="#b3b3b3"/>
    </linearGradient>
    <linearGradient id="linear-gradient2" x1="73.2" y1="81.5" x2="127.6" y2="81.5" gradientTransform="translate(0 149.9) scale(1 -1)" gradientUnits="userSpaceOnUse">
      <stop offset="0" stop-color="#fff"/>
      <stop offset=".2" stop-color="#f5f5f5"/>
      <stop offset=".6" stop-color="#dcdcdc"/>
      <stop offset="1" stop-color="#b4b4b4"/>
      <stop offset="1" stop-color="#b3b3b3"/>
    </linearGradient>
    <linearGradient id="linear-gradient3" x1="19.7" y1="115" x2="95.4" y2="115" gradientTransform="translate(0 149.9) scale(1 -1)" gradientUnits="userSpaceOnUse">
      <stop offset="0" stop-color="#fff"/>
      <stop offset=".2" stop-color="#f5f5f5"/>
      <stop offset=".6" stop-color="#dcdcdc"/>
      <stop offset="1" stop-color="#b4b4b4"/>
      <stop offset="1" stop-color="#b3b3b3"/>
    </linearGradient>
    <linearGradient id="linear-gradient4" x1="35.6" y1="119.2" x2="96.3" y2="119.2" gradientTransform="translate(0 149.9) scale(1 -1)" gradientUnits="userSpaceOnUse">
      <stop offset="0" stop-color="#fff"/>
      <stop offset=".2" stop-color="#f5f5f5"/>
      <stop offset=".6" stop-color="#dcdcdc"/>
      <stop offset="1" stop-color="#b4b4b4"/>
      <stop offset="1" stop-color="#b3b3b3"/>
    </linearGradient>
    <linearGradient id="linear-gradient5" x1="7.8" y1="59.9" x2="68.4" y2="59.9" gradientTransform="translate(0 149.9) scale(1 -1)" gradientUnits="userSpaceOnUse">
      <stop offset="0" stop-color="#fff"/>
      <stop offset=".2" stop-color="#f5f5f5"/>
      <stop offset=".6" stop-color="#dcdcdc"/>
      <stop offset="1" stop-color="#b4b4b4"/>
      <stop offset="1" stop-color="#b3b3b3"/>
    </linearGradient>
    <linearGradient id="linear-gradient6" x1="2.1" y1="41.5" x2="43.1" y2="41.5" gradientTransform="translate(0 149.9) scale(1 -1)" gradientUnits="userSpaceOnUse">
      <stop offset="0" stop-color="#fff"/>
      <stop offset=".2" stop-color="#f5f5f5"/>
      <stop offset=".6" stop-color="#dcdcdc"/>
      <stop offset="1" stop-color="#b4b4b4"/>
      <stop offset="1" stop-color="#b3b3b3"/>
    </linearGradient>
    <linearGradient id="linear-gradient7" x1="40.1" y1="98.8" x2="100.8" y2="98.8" gradientTransform="translate(0 149.9) scale(1 -1)" gradientUnits="userSpaceOnUse">
      <stop offset="0" stop-color="#fff"/>
      <stop offset=".2" stop-color="#f5f5f5"/>
      <stop offset=".6" stop-color="#dcdcdc"/>
      <stop offset="1" stop-color="#b4b4b4"/>
      <stop offset="1" stop-color="#b3b3b3"/>
    </linearGradient>
    <linearGradient id="linear-gradient8" x1="15" y1="83.5" x2="89.1" y2="83.5" gradientTransform="translate(0 149.9) scale(1 -1)" gradientUnits="userSpaceOnUse">
      <stop offset="0" stop-color="#fff"/>
      <stop offset=".2" stop-color="#f5f5f5"/>
      <stop offset=".6" stop-color="#dcdcdc"/>
      <stop offset="1" stop-color="#b4b4b4"/>
      <stop offset="1" stop-color="#b3b3b3"/>
    </linearGradient>
    <linearGradient id="linear-gradient9" x1="18.8" y1="87.8" x2="92.8" y2="87.8" gradientTransform="translate(0 149.9) scale(1 -1)" gradientUnits="userSpaceOnUse">
      <stop offset="0" stop-color="#fff"/>
      <stop offset=".2" stop-color="#f5f5f5"/>
      <stop offset=".6" stop-color="#dcdcdc"/>
      <stop offset="1" stop-color="#b4b4b4"/>
      <stop offset="1" stop-color="#b3b3b3"/>
    </linearGradient>
    <linearGradient id="linear-gradient10" x1="9.8" y1="63.4" x2="70.4" y2="63.4" gradientTransform="translate(0 149.9) scale(1 -1)" gradientUnits="userSpaceOnUse">
      <stop offset="0" stop-color="#fff"/>
      <stop offset=".2" stop-color="#f5f5f5"/>
      <stop offset=".6" stop-color="#dcdcdc"/>
      <stop offset="1" stop-color="#b4b4b4"/>
      <stop offset="1" stop-color="#b3b3b3"/>
    </linearGradient>
    <linearGradient id="linear-gradient11" x1="9.1" y1="48.8" x2="54" y2="48.8" gradientTransform="translate(0 149.9) scale(1 -1)" gradientUnits="userSpaceOnUse">
      <stop offset="0" stop-color="#fff"/>
      <stop offset=".2" stop-color="#f5f5f5"/>
      <stop offset=".6" stop-color="#dcdcdc"/>
      <stop offset="1" stop-color="#b4b4b4"/>
      <stop offset="1" stop-color="#b3b3b3"/>
    </linearGradient>
  </defs>
  <g id="Layer_4">
    <g>
      <ellipse class="st56" cx="73.6" cy="137.4" rx="60.3" ry="7.6"/>
      <ellipse class="st55" cx="72.7" cy="137.4" rx="59.2" ry="7.5"/>
      <ellipse class="st54" cx="71.8" cy="137.3" rx="58.1" ry="7.3"/>
      <ellipse class="st57" cx="71" cy="137.3" rx="56.9" ry="7.2"/>
      <ellipse class="st53" cx="70.1" cy="137.3" rx="55.8" ry="7.1"/>
      <ellipse class="st58" cx="69.2" cy="137.3" rx="54.7" ry="6.9"/>
      <path class="st17" d="M121.9,137.3c0-3.7-24-6.8-53.6-6.8s-53.6,3-53.6,6.8,24,6.8,53.6,6.8,53.6-3,53.6-6.8Z"/>
      <ellipse class="st18" cx="67.5" cy="137.3" rx="52.5" ry="6.6"/>
      <path class="st30" d="M117.9,137.3c0-3.6-23-6.5-51.4-6.5s-51.4,2.9-51.4,6.5,23,6.5,51.4,6.5,51.4-2.9,51.4-6.5Z"/>
      <ellipse class="st38" cx="65.7" cy="137.3" rx="50.2" ry="6.4"/>
      <ellipse class="st13" cx="64.8" cy="137.3" rx="49.1" ry="6.2"/>
      <path class="st10" d="M111.9,137.3c0-3.4-21.5-6.1-48-6.1s-48,2.7-48,6.1,21.5,6.1,48,6.1,48-2.7,48-6.1Z"/>
      <ellipse class="st26" cx="63.1" cy="137.3" rx="46.9" ry="5.9"/>
      <path class="st33" d="M108,137.3c0-3.2-20.5-5.8-45.8-5.8s-45.8,2.6-45.8,5.8,20.5,5.8,45.8,5.8,45.8-2.6,45.8-5.8Z"/>
      <path class="st21" d="M106,137.3c0-3.1-20-5.7-44.6-5.7s-44.6,2.5-44.6,5.7,20,5.7,44.6,5.7,44.6-2.5,44.6-5.7Z"/>
      <path class="st16" d="M104,137.2c0-3.1-19.5-5.5-43.5-5.5s-43.5,2.5-43.5,5.5,19.5,5.5,43.5,5.5,43.5-2.5,43.5-5.5Z"/>
      <path class="st8" d="M102,137.2c0-3-19-5.4-42.4-5.4s-42.4,2.4-42.4,5.4,19,5.4,42.4,5.4,42.4-2.4,42.4-5.4Z"/>
      <ellipse class="st12" cx="58.7" cy="137.2" rx="41.3" ry="5.2"/>
      <ellipse class="st11" cx="57.8" cy="137.2" rx="40.2" ry="5.1"/>
      <ellipse class="st14" cx="56.9" cy="137.2" rx="39.1" ry="5"/>
      <ellipse class="st23" cx="56.1" cy="137.2" rx="37.9" ry="4.8"/>
      <path class="st6" d="M92,137.2c0-2.6-16.5-4.7-36.8-4.7s-36.8,2.1-36.8,4.7,16.5,4.7,36.8,4.7,36.8-2.1,36.8-4.7Z"/>
      <path class="st1" d="M90,137.2c0-2.5-16-4.5-35.7-4.5s-35.7,2-35.7,4.5,16,4.5,35.7,4.5,35.7-2,35.7-4.5Z"/>
      <path class="st19" d="M88,137.2c0-2.4-15.5-4.4-34.6-4.4s-34.6,2-34.6,4.4,15.5,4.4,34.6,4.4,34.6-2,34.6-4.4Z"/>
      <path class="st40" d="M86,137.2c0-2.4-15-4.3-33.5-4.3s-33.5,1.9-33.5,4.3,15,4.3,33.5,4.3,33.5-1.9,33.5-4.3Z"/>
      <ellipse class="st4" cx="51.7" cy="137.2" rx="32.3" ry="4.1"/>
      <ellipse class="st37" cx="50.8" cy="137.2" rx="31.2" ry="4"/>
      <ellipse class="st39" cx="49.9" cy="137.2" rx="30.1" ry="3.8"/>
      <ellipse class="st2" cx="49.1" cy="137.1" rx="29" ry="3.7"/>
      <path class="st32" d="M76,137.1c0-2-12.5-3.6-27.9-3.6s-27.9,1.6-27.9,3.6,12.5,3.6,27.9,3.6,27.9-1.6,27.9-3.6Z"/>
      <ellipse class="st27" cx="47.3" cy="137.1" rx="26.8" ry="3.4"/>
      <path class="st24" d="M72.1,137.1c0-1.8-11.5-3.3-25.6-3.3s-25.6,1.5-25.6,3.3,11.5,3.3,25.6,3.3,25.6-1.5,25.6-3.3Z"/>
      <path class="st3" d="M70.1,137.1c0-1.7-11-3.1-24.5-3.1s-24.5,1.4-24.5,3.1,11,3.1,24.5,3.1,24.5-1.4,24.5-3.1Z"/>
      <ellipse class="st5" cx="44.7" cy="137.1" rx="23.4" ry="3"/>
      <path class="st34" d="M66.1,137.1c0-1.6-10-2.9-22.3-2.9s-22.3,1.3-22.3,2.9,10,2.9,22.3,2.9,22.3-1.3,22.3-2.9Z"/>
      <ellipse class="st41" cx="42.9" cy="137.1" rx="21.2" ry="2.7"/>
      <ellipse class="st31" cx="42" cy="137.1" rx="20" ry="2.6"/>
      <path class="st9" d="M60.1,137.1c0-1.3-8.5-2.4-18.9-2.4s-18.9,1.1-18.9,2.4,8.5,2.4,18.9,2.4,18.9-1.1,18.9-2.4Z"/>
      <ellipse class="st35" cx="40.3" cy="137.1" rx="17.8" ry="2.3"/>
      <path class="st25" d="M56.1,137.1c0-1.2-7.5-2.2-16.7-2.2s-16.7,1-16.7,2.2,7.5,2.2,16.7,2.2,16.7-1,16.7-2.2Z"/>
      <ellipse class="st20" cx="38.5" cy="137.1" rx="15.6" ry="2"/>
      <path class="st0" d="M52.1,137.1c0-1-6.5-1.9-14.4-1.9s-14.4.8-14.4,1.9,6.5,1.9,14.4,1.9,14.4-.8,14.4-1.9Z"/>
      <ellipse class="st42" cx="36.8" cy="137" rx="13.3" ry="1.7"/>
      <ellipse class="st7" cx="35.9" cy="137" rx="12.2" ry="1.6"/>
      <path class="st22" d="M46.1,137c0-.8-5-1.5-11.1-1.5s-11.1.7-11.1,1.5,5,1.5,11.1,1.5,11.1-.7,11.1-1.5Z"/>
      <ellipse class="st28" cx="34.2" cy="137" rx="10" ry="1.3"/>
      <path class="st15" d="M42.1,137c0-.7-4-1.2-8.9-1.2s-8.9.5-8.9,1.2,4,1.2,8.9,1.2,8.9-.5,8.9-1.2Z"/>
      <path class="st29" d="M40.1,137c0-.6-3.5-1-7.7-1s-7.7.5-7.7,1,3.5,1,7.7,1,7.7-.5,7.7-1Z"/>
      <path class="st36" d="M38.1,137c0-.5-3-.9-6.6-.9s-6.6.4-6.6.9,3,.9,6.6.9,6.6-.4,6.6-.9Z"/>
      <path class="st68" d="M36.2,137c0-.4-2.5-.8-5.5-.8s-5.5.3-5.5.8,2.5.8,5.5.8,5.5-.3,5.5-.8Z"/>
      <ellipse class="st61" cx="29.8" cy="137" rx="4.4" ry=".6"/>
      <ellipse class="st52" cx="28.9" cy="137" rx="3.3" ry=".5"/>
    </g>
  </g>
  <g id="Layer_3">
    <polygon class="st63" points="107.3 44.8 103.7 50.1 95.8 44.8 46.6 44.8 46.6 43.7 97.9 43.7 98.1 41.9 107.3 44.8"/>
    <polygon class="st44" points="123 69.8 118.6 68.1 63.3 68.1 63.3 66.6 117.2 66.5 115.5 62.9 118.4 63 123 69.8"/>
    <polygon class="st43" points="127.6 71.9 73.2 71.9 73.2 70.8 122.3 70.8 124.7 64.9 127.6 71.9"/>
    <polygon class="st46" points="95.4 35.4 19.7 35.4 19.7 34.3 90.1 34.3 95.4 35.4"/>
    <polygon class="st51" points="96.3 31.2 35.6 31.2 35.6 30.1 91 30.1 96.3 31.2"/>
    <polygon class="st50" points="68.4 90.5 7.8 90.5 7.8 89.4 63.1 89.4 68.4 90.5"/>
    <polygon class="st47" points="41.9 108.9 2.1 108.9 2.1 107.8 43.1 107.8 41.9 108.9"/>
    <polygon class="st64" points="92.3 34.6 71.3 34.9 72.5 31.3 91.4 28.6 92.3 34.6"/>
    <polygon class="st64" points="116.3 48.1 112 51.2 113.1 45.6 115.7 45.6 116.3 48.1"/>
    <polygon class="st67" points="109.2 55.9 102.8 55.9 105.1 37.4 112 51.8 109.2 55.9"/>
    <polygon class="st52" points="112 51.8 108.6 44.6 105.1 37.4 111.5 39.1 113.1 45.6 112 51.8"/>
    <polygon class="st67" points="111.5 39.1 109.1 44.6 105.1 37.4 111.5 39.1"/>
    <polygon class="st52" points="105.4 36.9 103.6 44.8 98.8 29.3 105.4 36.9"/>
    <polygon class="st67" points="101.7 41.9 95.4 40.5 94.1 27.9 101.7 41.9"/>
    <polygon class="st67" points="92.4 35.2 90.1 26.9 92.7 28.5 93.1 30.4 92.4 35.2"/>
    <polygon class="st64" points="103.6 44.8 101 44 96.7 41.1 101.9 42.6 103.6 44.8"/>
    <polygon class="st49" points="100.8 52.4 40.1 52.4 40.1 49.8 95.5 49.8 100.8 52.4"/>
    <polygon class="st48" points="89.1 69.6 76.4 65.8 15 65.8 15 63.2 88.4 63.2 89.1 69.6"/>
    <polygon class="st45" points="92.8 65.2 87.1 61.4 18.8 61.4 18.8 58.9 92.1 58.9 92.8 65.2"/>
    <polygon class="st60" points="70.4 87.6 9.8 87.6 9.8 85.3 65.1 85.3 70.4 87.6"/>
    <polygon class="st59" points="51.5 102.2 9.1 102.2 9.1 99.9 54 99.9 51.5 102.2"/>
    <polygon class="st64" points="101 64.4 97.5 64.5 102.1 58.9 107.4 58.6 101 64.4"/>
    <polygon class="st64" points="91 70.3 84.9 68.9 89.2 63 96.2 62.1 102.5 64.5 91 70.3"/>
    <polygon class="st64" points="86.5 64.5 77.8 65.3 88.8 59.6 98.4 59.6 101.3 62.2 86.5 64.5"/>
    <polygon class="st64" points="117 66.7 110.6 59.6 116.3 55.9 120 58.6 117 66.7"/>
    <polygon class="st62" points="94.8 35.1 95.3 39.7 91.4 35.2 92.3 34.6 93.1 28.2 94.8 35.1"/>
    <polygon class="st64" points="106.4 87.2 94.7 85.7 82 77.9 93.6 76.4 102.7 85.3 106.4 87.2"/>
    <polygon class="st64" points="101.3 65.9 101.3 64.5 107.8 58.6 109.5 60.3 101.3 65.9"/>
    <polygon class="st64" points="121.3 48.1 122.6 54.7 117.9 51.2 115.3 47 114.5 48.7 113.6 41.6 117.4 37.1 121.3 48.1"/>
    <polygon class="st67" points="126.2 41.3 121.3 48.1 117.4 37.1 122.2 36.2 126.2 41.3"/>
    <polygon class="st52" points="128.4 42.9 126.2 41.3 122.2 36.2 127.3 40.7 128.4 42.9"/>
    <polygon class="st64" points="117.9 51.2 112.3 52.5 115.7 47.6 117.9 51.2"/>
    <polygon class="st52" points="126.6 47.2 124.4 43.8 126.2 41.3 128.4 42.9 127.9 45.7 126.6 47.2"/>
    <polygon class="st52" points="122.6 54.7 121.3 48.1 124.4 43.8 127 47.9 126.8 49.7 124.2 52.9 122.6 54.7"/>
    <polygon class="st67" points="127 47.9 121.3 48.1 124.8 47.1 126.1 45.4 127 47.9"/>
    <polygon class="st62" points="123.3 43.4 121.8 43.8 120.4 47.9 119.9 42.9 121.8 41.9 123.3 43.4"/>
    <polygon class="st67" points="124.8 52.1 124.7 50.3 126.8 49.7 124.8 52.1"/>
    <polygon class="st64" points="103.7 48.7 102.8 55.9 93 49.8 95.8 44.8 103.2 45.4 103.7 48.7"/>
    <polygon class="st64" points="102.8 55.9 104.6 55.9 103.1 60 100.8 57.3 93.3 54.8 92 56.3 92.2 54 93.6 51.8 102.8 55.9"/>
    <polygon class="st67" points="111.1 59.8 107.6 63 107.6 59.6 103.1 60 105.1 56.2 110.4 56.2 111.1 59.8"/>
    <polygon class="st67" points="110.9 60.9 109.8 56.2 113.3 52.5 118.1 56.8 119.9 57.4 110.9 60.9"/>
    <polygon class="st52" points="118.1 56.8 113.3 52.5 117.5 53.3 119.9 57.4 118.1 56.8"/>
    <polygon class="st67" points="118.9 52 115.5 52.8 117.9 51.2 118.9 52"/>
    <polygon class="st64" points="110.9 60.9 108.8 56.2 109.8 56.2 110.9 60.9"/>
    <polygon class="st67" points="102.3 40.6 97.5 31.9 95.3 29.3 98.8 29.3 102.3 40.6"/>
    <polygon class="st64" points="95.8 60 87.1 59 93.9 55.9 102.1 57.4 100 62.1 95.8 60"/>
    <polygon class="st64" points="79.7 78.8 71.6 72.6 76.4 65.8 86.7 65.9 79 75.9 79.7 78.8"/>
    <polygon class="st67" points="80.8 79.1 79.9 77 84.8 67.6 92.3 70.6 100.5 79.1 80.8 79.1"/>
    <polygon class="st52" points="100.5 79.1 93 73.9 85.2 67.8 88.4 68.4 93.6 70.9 100.5 79.1"/>
    <polygon class="st52" points="109.1 89.4 98.8 83.5 92.9 79.9 101.8 79.1 109.1 89.4"/>
    <polygon class="st67" points="105.1 89.2 89 86 80.8 79.1 92.9 80.5 105.1 89.2"/>
    <polygon class="st52" points="88.4 68.1 84.9 67.1 86 65.1 88.4 68.1"/>
    <polygon class="st64" points="78.8 97.4 73.7 96.4 70.4 93.9 69 92.6 80.8 91.3 102.5 90.9 78.8 97.4"/>
    <polygon class="st62" points="94.2 70.9 93.6 69.1 100.5 65.9 94.2 70.9"/>
    <polygon class="st64" points="105.4 91.3 93.6 89.9 93.6 86.9 101.7 89.4 105.4 91.3"/>
    <polygon class="st64" points="75 97.4 71.6 99.4 69 97.4 72.4 99.9 73.1 106 75 109.1 72.1 109.6 67.5 106 64.9 97.6 63.7 96 62.6 92.8 64.6 91.4 68.1 91.9 75 97.4"/>
    <polygon class="st67" points="105.4 91.3 88.4 92 85.7 90.4 89.5 87.2 99.2 90.3 105.4 91.3"/>
    <polygon class="st67" points="106.6 96.8 74.4 98.5 92 92 107.7 91.6 106.6 96.8"/>
    <polygon class="st62" points="86.6 92.4 84.5 89.4 70.4 91.9 86.6 92.4"/>
    <polygon class="st52" points="73.3 96 68.1 91.9 64.6 91.4 73.3 96"/>
    <polygon class="st67" points="73.1 106 71.6 103.6 69 97.4 72.4 99.9 73.1 106"/>
    <polygon class="st64" points="126.2 72.2 117.9 66.3 117.9 60.3 125 63.9 126.2 72.2"/>
    <polygon class="st65" points="129.2 73.4 127 74.2 126 67.1 126.8 65.9 129.2 73.4"/>
    <polygon class="st64" points="123.4 69.5 124.9 73.1 118.6 68.1 123.4 69.5"/>
    <polygon class="st64" points="130.4 71.5 128.8 72 127 65.3 137.4 54.6 130.4 71.5"/>
    <polygon class="st52" points="118.9 61.6 120.4 58.6 125.8 64.2 118.9 61.6"/>
    <polygon class="st52" points="107.4 96.4 107.1 91 104.9 87.6 110.3 90.6 107.4 96.4"/>
    <polygon class="st64" points="136.4 55.3 128.7 64.1 130.8 59.8 132.8 54.1 136.7 54.5 136.4 55.3"/>
    <polygon class="st64" points="136.8 54 133.2 53.8 131.6 52 138.8 50 136.8 54"/>
    <polygon class="st64" points="132.8 51.4 131.6 51.6 131.5 49.1 132.9 49.9 132.8 51.4"/>
    <polygon class="st64" points="135.2 51 132.9 51.4 133.7 47.3 138.4 49.4 135.2 51"/>
    <polygon class="st64" points="134.6 46.7 133.7 46.7 134 44.1 134.9 44.1 134.6 46.7"/>
    <rect class="st64" x="134.2" y="43.9" width="3.9" height="1.1" transform="translate(66.1 169.4) rotate(-78.8)"/>
    <polygon class="st64" points="137.4 48.3 136.5 48 137.5 44.1 138.4 44.4 137.4 48.3"/>
    <polygon class="st64" points="139.2 49 138.3 48.7 139 46.5 139.9 46.8 139.2 49"/>
    <polygon class="st64" points="132.6 49.3 131.5 49.1 132.4 47.5 132.8 48.4 132.6 49.3"/>
    <polygon class="st64" points="96.3 43.8 96.1 39.5 100.2 44.3 96.3 43.8"/>
    <polygon class="st67" points="130.4 71.5 134.4 57.9 137.4 54.6 130.4 71.5"/>
    <polygon class="st67" points="136.8 54 135.9 53 138.3 50.2 138.8 50 136.8 54"/>
    <polygon class="st67" points="135 52.7 132.4 51.8 133.1 51.6 135.2 51 135 52.7"/>
    <polygon class="st67" points="132.8 51.4 132.2 51.5 131.9 49.4 132.9 49.9 132.8 51.4"/>
    <polygon class="st67" points="132.6 49.3 132.2 49.3 132.4 47.5 132.8 48.4 132.6 49.3"/>
    <polygon class="st64" points="68.9 90.4 59.9 89.1 72.5 75.2 80.7 80 68.9 90.4"/>
    <polygon class="st64" points="69 91.4 68.9 90.4 80.8 80.9 81.8 83.1 69 91.4"/>
    <polygon class="st64" points="60.9 92.4 57 92.5 60.4 89.9 67.5 90.4 60.9 92.4"/>
    <polygon class="st64" points="40.3 110.3 48.6 99 53 94.3 61.6 92.4 63.4 96.6 40.3 110.3"/>
    <polygon class="st62" points="42.9 112.1 37.1 116.2 40.9 111.4 49.9 106 42.9 112.1"/>
    <polygon class="st64" points="51.7 103.8 50.9 106.5 57.5 101.6 51.7 103.8"/>
    <polygon class="st62" points="19.2 118 18.5 120.7 21.8 116.6 19.2 118"/>
    <polygon class="st64" points="26.1 107.4 27.8 109 28.7 106 26.1 107.4"/>
    <polygon class="st62" points="7.2 117.5 9 119.1 9.8 116.1 7.2 117.5"/>
    <polygon class="st64" points="50.9 91.2 52.7 92.8 53.5 89.8 50.9 91.2"/>
    <polygon class="st64" points="31.7 97.9 33.4 99.5 35 97.4 31.7 97.9"/>
    <polygon class="st64" points="22.4 98.2 27.4 97.5 28.7 95.2 22.4 98.2"/>
    <polygon class="st64" points="42.6 99.6 41.9 102.3 48.5 97.5 42.6 99.6"/>
    <polygon class="st62" points="31.7 104 37.1 104.5 39.3 102.1 31.7 104"/>
    <polygon class="st65" points="13.7 69.6 13.9 72.6 18.6 73.6 13.7 69.6"/>
    <polygon class="st64" points="34.6 105.7 33.9 108.4 36.3 107.7 34.6 105.7"/>
    <polygon class="st64" points="58.1 85.6 55.5 92 59.8 87.6 58.1 85.6"/>
    <polygon class="st64" points="25.6 119.8 25.6 126.1 26.8 123.8 25.6 119.8"/>
    <polygon class="st64" points="57 81.4 55.8 86.1 67.5 77.6 57 81.4"/>
    <polygon class="st62" points="57.1 62.9 60.9 66.1 46.4 65.9 57.1 62.9"/>
    <polygon class="st62" points="80.3 61.4 77 59.2 86.3 59.7 80.3 61.4"/>
    <polygon class="st62" points="28.2 85.3 24.9 83.2 32.9 81.9 28.2 85.3"/>
    <polygon class="st64" points="49.7 73.9 53.3 70.6 55.8 72.2 49.7 73.9"/>
    <polygon class="st64" points="36.2 79.3 37.8 77.8 38.9 78.5 36.2 79.3"/>
    <polygon class="st64" points="36.3 95.9 37.9 94.4 39 95.2 36.3 95.9"/>
    <polygon class="st62" points="14.9 124.5 18.2 123 18.8 124.5 14.9 124.5"/>
    <polygon class="st64" points="21.8 126.1 23.4 124.6 24.5 125.4 21.8 126.1"/>
    <polygon class="st62" points="7.2 128.9 8.8 127.4 9.9 128.2 7.2 128.9"/>
    <polygon class="st64" points="8.6 106.4 10.1 104.9 11.2 105.7 8.6 106.4"/>
    <polygon class="st64" points="55.5 70.3 57.7 70.1 58.1 71.4 55.5 70.3"/>
    <polygon class="st64" points="69.8 55.5 72 55.3 72.4 56.6 69.8 55.5"/>
    <polygon class="st64" points="87.5 39 85.3 38.8 84.9 40.1 87.5 39"/>
    <polygon class="st64" points="67.6 71.2 65.5 71 65.1 72.3 67.6 71.2"/>
    <polygon class="st62" points="54 40.2 56.2 40 56.6 41.2 54 40.2"/>
    <polygon class="st64" points="64.8 37.2 61.9 38.6 62 37.2 64.8 34.9 64.8 37.2"/>
    <polygon class="st64" points="61.4 36.5 59.7 37.8 61.1 34.2 62.1 32.6 61.4 36.5"/>
    <polygon class="st64" points="65.5 34.5 61.4 36.5 62.8 32.1 65.4 31.3 65.5 34.5"/>
    <polygon class="st64" points="61.5 38.8 60.1 40.6 59.8 40 61.4 37.3 61.5 38.8"/>
    <polygon class="st62" points="47.7 38.4 53.2 38 53.6 39.3 47.7 38.4"/>
    <polygon class="st64" points="55.3 33.4 59.5 32.1 58.6 33.4 55.3 33.4"/>
    <polygon class="st64" points="88.3 51.1 87.6 49.3 91.4 50.3 88.3 51.1"/>
    <polygon class="st64" points="84.9 59 87.7 55.3 91.4 56.3 84.9 59"/>
    <polygon class="st64" points="94.2 45 93.6 39.3 96.1 44.3 94.2 45"/>
    <polygon class="st64" points="77.1 56.3 77.4 54.3 80.1 57 77.1 56.3"/>
    <polygon class="st62" points="30.3 42 29.6 40.2 33.3 41.2 30.3 42"/>
    <polygon class="st64" points="27.4 112 24.8 117.6 27.3 115.4 27.4 112"/>
    <polygon class="st64" points="37.1 107.4 36.1 114.1 45.2 102.3 37.1 107.4"/>
    <polygon class="st64" points="29.6 111.8 30 116.6 35.3 109.6 29.6 111.8"/>
    <polygon class="st64" points="28.4 117.1 27.4 122.6 31.4 122.6 34.6 113.1 28.4 117.1"/>
    <polygon class="st64" points="29.4 130.4 27.4 129 27.4 126 31.7 124.5 29.4 130.4"/>
    <polygon class="st64" points="71.9 34.9 68.6 38.7 66.4 37.8 68.4 33.4 71.9 34.9"/>
    <polygon class="st64" points="32.9 122.6 32.9 120.9 34.6 115.2 37.1 114.6 32.9 122.6"/>
    <polygon class="st64" points="71.3 34.9 70.9 32.9 71.2 30.7 72.4 30.1 71.3 34.9"/>
    <polygon class="st67" points="70.7 30.8 66 31.1 64.2 34.8 65 37.1 71.3 34.9 70.7 30.8"/>
    <polygon class="st64" points="65.9 42 65.6 40.3 66.4 38.4 68.1 38.7 65.9 42"/>
    <polygon class="st52" points="88.8 30.5 73.2 32.1 72.5 31.3 89.6 27.7 88.8 30.5"/>
    <polygon class="st52" points="74.3 30.6 71.5 29.2 80.1 28.9 74.3 30.6"/>
    <polygon class="st52" points="70.9 31.9 66 31.1 70.7 30.8 70.9 31.9"/>
    <polygon class="st52" points="100.2 39.1 96.4 35.9 94.1 27.9 97.1 32.6 100.2 39.1"/>
    <polygon class="st67" points="81.2 70.3 76.4 66.7 76.4 65.8 84.9 66.4 81.2 70.3"/>
    <polygon class="st64" points="98.3 87.8 89 86 80.8 79.1 88.1 83 98.3 87.8"/>
    <polygon class="st64" points="106.6 96.8 74.4 98.5 83.8 95.8 106.6 96.8"/>
  </g>
  <rect class="st66" x=".5" y=".6" width="148.6" height="148.6"/>
</svg>